# AST/ASF file generated using VICON BodyLanguage
# -----------------------------------------------
:version 1.10
:name VICON
:units
  mass 1.0
  length 0.45
  angle deg
:documentation
   .ast/.asf automatically generated from VICON data using
   VICON BodyBuilder and BodyLanguage model FoxedUp or BRILLIANT.MOD
:root
   order TX TY TZ RX RY RZ
   axis XYZ
   position 0 0 0  
   orientation 0 0 0 
:bonedata
  begin
     id 1 
     name lhipjoint
     direction 0.643824 -0.71708 0.266994 
     length 2.52133 
     axis 0 0 0  XYZ
  end
  begin
     id 2 
     name lfemur
     direction 0.34202 -0.939693 0  
     length 7.51824  
     axis 0 0 20  XYZ
    dof rx ry rz
    limits (-160.0 20.0)
           (-70.0 70.0)
           (-60.0 70.0)
  end
  begin
     id 3 
     name ltibia
     direction 0.34202 -0.939693 0   
     length 7.3685   
     axis 0 0 20   XYZ
    dof rx
    limits (-10.0 170.0)
  end
  begin
     id 4 
     name lfoot
     direction 0.105419 -0.289636 0.951314   
     length 2.20972   
     axis -90 7.62852e-016 20   XYZ
    dof rx rz
    limits (-45.0 90.0)
           (-70.0 20.0)
  end
  begin
     id 5 
     name ltoes
     direction 1.53549e-011 -4.21833e-011 1   
     length 1.10139   
     axis -90 7.62852e-016 20   XYZ
    dof rx
    limits (-90.0 20.0)
  end
  begin
     id 6 
     name rhipjoint
     direction -0.608823 -0.743445 0.276811   
     length 2.43192  
     axis 0 0 0  XYZ 
  end
  begin
     id 7 
     name rfemur
     direction -0.34202 -0.939693 0   
     length 7.69715   
     axis 0 0 -20   XYZ
    dof rx ry rz
    limits (-160.0 20.0)
           (-70.0 70.0)
           (-70.0 60.0)
  end
  begin
     id 8 
     name rtibia
     direction -0.34202 -0.939693 0   
     length 7.44924   
     axis 0 0 -20   XYZ
    dof rx
    limits (-10.0 170.0)
 end
 begin
     id 9 
     name rfoot
     direction -0.103614 -0.284677 0.953007   
     length 2.22623  
     axis -90 -7.62852e-016 -20   XYZ
    dof rx rz
    limits (-45.0 90.0)
           (-20.0 70.0)
  end
  begin
     id 10 
     name rtoes
     direction -1.53537e-011 -4.22026e-011 1   
     length 1.11   
     axis -90 -7.62852e-016 -20   XYZ
    dof rx
    limits (-90.0 20.0)
  end
  begin
     id 11 
     name lowerback
     direction -0.0101212 0.99662 -0.0815298   
     length 2.08277   
     axis 0 0 0   XYZ
    dof rx ry rz
    limits (-20.0 45.0)
           (-30.0 30.0)
           (-30.0 30.0)
  end
  begin
     id 12 
     name upperback
     direction 0.024314 0.999591 -0.0150645   
     length 2.08524   
     axis 0 0 0   XYZ
    dof rx ry rz
    limits (-20.0 45.0)
           (-30.0 30.0)
           (-30.0 30.0)
  end
  begin
     id 13 
     name thorax
     direction 0.0285959 0.999323 0.0231357   
     length 2.09645   
     axis 0 0 0   XYZ
    dof rx ry rz
    limits (-20.0 45.0)
           (-30.0 30.0)
           (-30.0 30.0)
  end
  begin
     id 14 
     name lowerneck
     direction -0.065512 0.979301 0.191515   
     length 1.63798   
     axis 0 0 0   XYZ
    dof rx ry rz
    limits (-20.0 45.0)
           (-30.0 30.0)
           (-30.0 30.0)
  end
  begin
     id 15 
     name upperneck
     direction 0.0498479 0.98191 -0.182667   
     length 1.68731   
     axis 0 0 0   XYZ
    dof rx ry rz
    limits (-20.0 45.0)
           (-30.0 30.0)
           (-30.0 30.0)
  end
  begin
     id 16
     name head
     direction 0.0230358 0.996257 -0.0833175  
     length 1.69785  
     axis 0 0 0   XYZ
    dof rx ry rz
    limits (-20.0 45.0)
           (-30.0 30.0)
           (-30.0 30.0)
  end
  begin
     id 17 
     name lclavicle
     direction 0.967963 0.201165 -0.150269  
     length 3.63976  
     axis 0 0 0   XYZ
    dof ry rz
    limits (-20.0 10.0)
           (0.0 20.0)
  end
  begin
     id 18 
     name lhumerus
     direction 1 -4.48954e-011 -2.92837e-028   
     length 5.32462   
     axis 180 -30 -90   XYZ
    dof rx ry rz
    limits (-60.0 90.0)
           (-90.0 90.0)
           (-90.0 90.0)
  end
  begin
     id 19
     name lradius
     direction 1 -4.48958e-011 -6.39511e-027   
     length 3.48402   
     axis 180 -30 -90   XYZ
    dof rx
    limits (-10.0 170.0)
  end
  begin
     id 20
     name lwrist
     direction 1 -4.48975e-011 -1.1413e-026   
     length 1.74201   
     axis 6.88575e-015 90 90   XYZ
    dof ry
    limits (-180.0 0.0)
 end
  begin
     id 21 
     name lhand
     direction 1 -4.48899e-011 -2.28192e-026   
     length 0.572476   
     axis 1.45643e-014 90 90   XYZ
    dof rx rz
    limits (-90.0 90.0)
           (-45.0 45.0)
  end
  begin
     id 22 
     name lfingers
     direction 1 -4.49155e-011 -4.5684e-026   
     length 0.461545   
     axis 2.91283e-014 90 90   XYZ
    dof rx
    limits (0.0 90.0)
  end
  begin
     id 23
     name lthumb
     direction 0.707107 -6.34943e-011 0.707107   
     length 0.662688   
     axis -90 45 -2.25915e-014   XYZ
    dof rx rz
    limits (-45.0 45.0)
           (-45.0 45.0)
  end
  begin
     id 24 
     name rclavicle
     direction -0.964103 0.264019 -0.0282629   
     length 3.54491  
     axis 0 0 0   XYZ 
    dof ry rz
    limits (-10.0 20.0)
           (-20.0 0.0)
  end
  begin
     id 25 
     name rhumerus
     direction -1 -4.48964e-011 -2.45032e-027  
     length 5.33589   
     axis 180 30 90   XYZ
    dof rx ry rz
    limits (-90.0 60.0)
           (-90.0 90.0)
           (-90.0 90.0)
  end
  begin
     id 26 
     name rradius
     direction -1 -4.48987e-011 -1.55093e-027   
     length 3.64134   
     axis 180 30 90   XYZ
    dof rx
    limits (-10.0 170.0)
  end
  begin
     id 27 
     name rwrist
     direction -1 -4.4897e-011 -1.14128e-026   
     length 1.82067   
     axis 6.88575e-015 -90 -90   XYZ
    dof ry
    limits (-180.0 0.0)
  end
  begin
     id 28
     name rhand
     direction -1 -4.49021e-011 -2.28301e-026   
     length 0.734811   
     axis 1.45643e-014 -90 -90   XYZ
    dof rx rz
    limits (-90.0 90.0)
           (-45.0 45.0)
  end
  begin
     id 29
     name rfingers
     direction -1 -4.48862e-011 -4.56319e-026   
     length 0.592424   
     axis 2.91283e-014 -90 -90   XYZ
    dof rx
    limits (0.0 90.0)
  end
  begin
     id 30
     name rthumb
     direction -0.707107 -6.34978e-011 0.707107   
     length 0.850605   
     axis -90 -45 2.25915e-014   XYZ
    dof rx rz
    limits (-45.0 45.0)
           (-45.0 45.0)
  end
:hierarchy
  begin
    root lhipjoint rhipjoint lowerback
    lhipjoint lfemur
    lfemur ltibia
    ltibia lfoot
    lfoot ltoes
    rhipjoint rfemur
    rfemur rtibia
    rtibia rfoot
    rfoot rtoes
    lowerback upperback
    upperback thorax
    thorax lowerneck lclavicle rclavicle
    lowerneck upperneck
    upperneck head
    lclavicle lhumerus
    lhumerus lradius
    lradius lwrist
    lwrist lhand lthumb
    lhand lfingers
    rclavicle rhumerus
    rhumerus rradius
    rradius rwrist
    rwrist rhand rthumb
    rhand rfingers
  end

#!OML:ASF F:\VICON\USERDATA\INSTALL\rory3\rory3.ASF
:FULLY-SPECIFIED
:DEGREES
129
root 10.753 17.7119 2.32458 163.615 -84.01 -156.396
lowerback 2.25616 -0.70109 -0.519854
upperback 0.855667 -0.981908 3.64237
thorax -0.314279 -0.52139 4.0639
lowerneck -16.0734 0.568193 -11.3352
upperneck 40.065 3.35653 -1.18164
head 17.3376 -1.21137 1.88739
rclavicle 3.67752e-015 3.18055e-015
rhumerus -31.9803 -4.64861 -76.1872
rradius 37.0847
rwrist 20.6562
rhand -20.8556 2.71863
rfingers 7.12502
rthumb 5.51375 -27.1896
lclavicle 3.67752e-015 3.18055e-015
lhumerus -33.6495 12.6015 82.4157
lradius 27.5913
lwrist -8.79185
lhand -11.8372 24.2234
lfingers 7.12502
lthumb 14.2139 53.7171
rfemur -11.9677 1.61626 28.149
rtibia 28.0191
rfoot -20.6108 -1.1894
rtoes 15.7772
lfemur -33.9405 1.06149 -13.9853
ltibia 50.071
lfoot -9.25583 0.963813
ltoes -23.0101
130
root 10.7092 17.7101 2.31859 166.276 -84.0693 -158.948
lowerback 2.23395 -0.670873 -0.780647
upperback 0.837252 -0.943426 3.56011
thorax -0.320796 -0.500462 4.12514
lowerneck -16.0847 0.584537 -11.2443
upperneck 39.9662 3.35383 -1.15681
head 17.2832 -1.18317 1.88447
rclavicle 1.32192e-014 -1.74931e-014
rhumerus -31.9776 -4.46553 -76.1857
rradius 37.679
rwrist 20.86
rhand -20.3799 2.07838
rfingers 7.12502
rthumb 5.97309 -27.8174
lclavicle 1.32192e-014 -1.74931e-014
lhumerus -33.7196 12.3651 82.5175
lradius 27.5718
lwrist -8.65512
lhand -11.9575 24.4102
lfingers 7.12502
lthumb 14.0979 53.912
rfemur -11.8988 1.69131 27.8711
rtibia 27.9334
rfoot -20.7189 -1.27516
rtoes 14.5314
lfemur -34.2991 1.19016 -14.4084
ltibia 48.9475
lfoot -9.11215 0.903019
ltoes -22.9101
131
root 10.6632 17.7075 2.31442 166.453 -84.0391 -159.014
lowerback 2.17545 -0.709376 -0.837122
upperback 0.884336 -1.00002 3.64872
thorax -0.232646 -0.53186 4.24919
lowerneck -16.2717 0.646234 -11.2533
upperneck 39.8743 3.52122 -1.21169
head 17.2717 -1.11584 1.89477
rclavicle -3.19049e-014 1.27222e-014
rhumerus -31.7107 -3.86932 -76.2023
rradius 38.0669
rwrist 20.7002
rhand -20.2047 2.09347
rfingers 7.12502
rthumb 6.14218 -27.7975
lclavicle -3.19049e-014 1.27222e-014
lhumerus -33.7572 12.6545 82.596
lradius 27.5761
lwrist -8.79736
lhand -12.0868 25.0637
lfingers 7.12502
lthumb 13.9733 54.5741
rfemur -11.8338 1.50174 27.8741
rtibia 27.8779
rfoot -20.7384 -1.09931
rtoes 13.0193
lfemur -34.6362 1.17466 -14.504
ltibia 47.7596
lfoot -8.8459 1.0052
ltoes -22.9075
132
root 10.6179 17.7037 2.31114 165.81 -83.8969 -158.336
lowerback 2.17333 -0.663137 -0.720737
upperback 0.971967 -0.941069 3.69362
thorax -0.147319 -0.505453 4.22776
lowerneck -16.3178 0.691782 -11.1953
upperneck 39.7239 3.5898 -1.20001
head 17.1939 -1.06068 1.90531
rclavicle 2.46493e-014 -2.94201e-014
rhumerus -31.5164 -3.21536 -76.3815
rradius 38.3417
rwrist 19.9793
rhand -20.6022 2.38182
rfingers 7.12502
rthumb 5.75845 -27.5199
lclavicle 2.46493e-014 -2.94201e-014
lhumerus -33.7173 12.4997 82.7243
lradius 27.578
lwrist -8.76974
lhand -12.1276 25.3001
lfingers 7.12502
lthumb 13.934 54.8132
rfemur -11.6714 1.33966 27.9771
rtibia 27.8144
rfoot -20.7356 -0.834674
rtoes 12.6071
lfemur -34.8614 1.32562 -14.4879
ltibia 46.5213
lfoot -8.58093 1.14579
ltoes -22.9264
133
root 10.5729 17.7006 2.30827 167.476 -83.7605 -159.95
lowerback 2.14853 -0.564845 -0.729376
upperback 1.02182 -0.809267 3.57309
thorax -0.0943831 -0.439125 4.10376
lowerneck -16.1859 0.710105 -11.0911
upperneck 39.5224 3.51974 -1.06915
head 17.0448 -1.03096 1.93514
rclavicle 1.22253e-014 -2.94201e-014
rhumerus -31.4086 -2.74377 -76.6367
rradius 38.6255
rwrist 19.1416
rhand -21.0905 2.44811
rfingers 7.12502
rthumb 5.287 -27.4659
lclavicle 1.22253e-014 -2.94201e-014
lhumerus -33.6769 12.0636 82.775
lradius 27.5588
lwrist -8.67704
lhand -11.7811 24.9314
lfingers 7.12502
lthumb 14.2679 54.4213
rfemur -11.5065 1.51338 27.832
rtibia 27.7051
rfoot -20.9248 -0.874015
rtoes 11.7193
lfemur -35.0834 1.57224 -14.7656
ltibia 45.2286
lfoot -8.41385 1.45798
ltoes -24.2092
134
root 10.5257 17.7013 2.30571 168.477 -83.61 -160.895
lowerback 2.17002 -0.484039 -0.738758
upperback 1.05494 -0.701749 3.53585
thorax -0.0810768 -0.385474 4.0682
lowerneck -16.1945 0.716855 -11.0929
upperneck 39.4316 3.50069 -0.962016
head 16.9919 -1.01219 1.982
rclavicle 1.09332e-014 -3.18055e-015
rhumerus -31.2762 -2.25018 -76.7394
rradius 38.9514
rwrist 18.4293
rhand -21.6885 2.78789
rfingers 7.12502
rthumb 4.70954 -27.1398
lclavicle 1.09332e-014 -3.18055e-015
lhumerus -33.6883 11.9085 82.8214
lradius 27.5741
lwrist -8.80508
lhand -11.344 24.9128
lfingers 7.12502
lthumb 14.6891 54.3724
rfemur -11.3212 1.80538 27.7666
rtibia 27.6043
rfoot -21.167 -0.967294
rtoes 11.5093
lfemur -35.2838 1.83081 -14.9639
ltibia 43.8893
lfoot -8.27138 1.69501
ltoes -25.39
135
root 10.4759 17.6991 2.30246 168.499 -83.5077 -160.901
lowerback 2.1975 -0.439166 -0.676715
upperback 1.13917 -0.643795 3.52583
thorax -0.0152602 -0.3584 4.02118
lowerneck -16.3643 0.722803 -11.1109
upperneck 39.4232 3.53698 -0.907991
head 17.0251 -0.989519 2.01923
rclavicle 2.68359e-015 -3.18055e-014
rhumerus -31.0661 -1.82319 -76.8339
rradius 39.2501
rwrist 17.9784
rhand -22.1059 3.50948
rfingers 7.12502
rthumb 4.30648 -26.4267
lclavicle 2.68359e-015 -3.18055e-014
lhumerus -33.6293 12.0048 82.8231
lradius 27.5437
lwrist -9.02559
lhand -11.0488 24.9608
lfingers 7.12502
lthumb 14.9735 54.3995
rfemur -11.0842 1.95912 27.7905
rtibia 27.4708
rfoot -21.1571 -0.937176
rtoes 12.5091
lfemur -35.4202 2.01409 -15.0237
ltibia 42.5389
lfoot -8.02686 1.72903
ltoes -24.2474
136
root 10.4268 17.6947 2.29717 169.751 -83.5056 -162.103
lowerback 2.2454 -0.431375 -0.812088
upperback 1.15234 -0.633975 3.46643
thorax -0.0285207 -0.35302 4.03645
lowerneck -16.3743 0.734388 -11.0893
upperneck 39.3921 3.55196 -0.909144
head 17.0094 -0.976861 2.01816
rclavicle -9.44227e-015 1.82882e-014
rhumerus -30.917 -1.60161 -76.9013
rradius 39.6267
rwrist 18.4732
rhand -21.8485 3.90351
rfingers 7.12502
rthumb 4.55509 -26.0275
lclavicle -9.44227e-015 1.82882e-014
lhumerus -33.6758 12.0969 82.7508
lradius 27.5287
lwrist -9.2294
lhand -10.9418 24.7869
lfingers 7.12502
lthumb 15.0765 54.2179
rfemur -10.865 2.08858 27.6443
rtibia 27.24
rfoot -21.1174 -0.96606
rtoes 13.4129
lfemur -35.6058 1.99057 -15.1994
ltibia 41.2158
lfoot -7.59499 1.64884
ltoes -21.8208
137
root 10.3793 17.6925 2.29738 168.617 -83.3346 -160.9
lowerback 2.38079 -0.338556 -0.558187
upperback 1.12325 -0.503821 3.46532
thorax -0.146457 -0.285687 3.89003
lowerneck -16.3296 0.697498 -11.0745
upperneck 39.3892 3.46333 -0.858352
head 16.9998 -1.00145 2.02244
rclavicle -9.93923e-017 2.38542e-015
rhumerus -30.8787 -1.53438 -76.8595
rradius 40.2014
rwrist 19.7216
rhand -20.9446 3.62694
rfingers 7.12502
rthumb 5.42787 -26.2835
lclavicle -9.93923e-017 2.38542e-015
lhumerus -33.7361 11.8523 82.7505
lradius 27.5344
lwrist -9.40395
lhand -11.167 24.8453
lfingers 7.12502
lthumb 14.8596 54.2924
rfemur -10.6327 2.21729 27.8208
rtibia 26.9847
rfoot -21.1201 -0.987282
rtoes 13.7424
lfemur -35.789 1.96277 -14.9698
ltibia 39.9156
lfoot -7.14489 1.52673
ltoes -18.9178
138
root 10.3308 17.69 2.29948 166.38 -83.0334 -158.636
lowerback 2.49474 -0.208868 -0.142654
upperback 1.18625 -0.326398 3.51976
thorax -0.160409 -0.198055 3.70753
lowerneck -16.3698 0.631698 -11.0916
upperneck 39.3434 3.35061 -0.771742
head 16.9882 -1.03015 2.04583
rclavicle 7.55382e-015 -9.54166e-015
rhumerus -30.7127 -1.11229 -76.8966
rradius 40.7609
rwrist 20.1353
rhand -20.6253 3.24045
rfingers 7.12502
rthumb 5.73613 -26.6619
lclavicle 7.55382e-015 -9.54166e-015
lhumerus -33.636 11.6934 82.846
lradius 27.5177
lwrist -9.51807
lhand -11.4375 25.1624
lfingers 7.12502
lthumb 14.599 54.6286
rfemur -10.3309 2.40336 28.1853
rtibia 26.7443
rfoot -21.1509 -1.06485
rtoes 14.0369
lfemur -35.9168 2.19203 -14.6364
ltibia 38.5721
lfoot -6.78667 1.53096
ltoes -18.1432
139
root 10.2792 17.6844 2.29765 166.531 -82.9198 -158.687
lowerback 2.47964 -0.176264 -0.173053
upperback 1.21605 -0.285981 3.56237
thorax -0.123608 -0.179264 3.76775
lowerneck -16.3704 0.658294 -11.139
upperneck 39.3437 3.38719 -0.720003
head 16.9829 -1.01427 2.08417
rclavicle -3.08116e-014 -3.18055e-015
rhumerus -30.4948 -0.531795 -76.9723
rradius 41.2056
rwrist 19.8465
rhand -20.9059 3.33982
rfingers 7.12502
rthumb 5.46517 -26.5697
lclavicle -3.08116e-014 -3.18055e-015
lhumerus -33.6466 11.874 82.862
lradius 27.5824
lwrist -9.62025
lhand -11.4763 25.2255
lfingers 7.12502
lthumb 14.5616 54.6944
rfemur -10.1306 2.65019 28.2311
rtibia 26.5282
rfoot -21.3258 -1.25368
rtoes 14.5076
lfemur -36.1201 2.25032 -14.6822
ltibia 37.1645
lfoot -6.40868 1.82676
ltoes -19.7147
